<mxfile host="app.diagrams.net" modified="2024-03-17T16:35:25.937Z" agent="Mozilla/5.0 (Windows NT 10.0; Win64; x64) AppleWebKit/537.36 (KHTML, like Gecko) Chrome/122.0.0.0 Safari/537.36" etag="OHQHntqpuvbpp7N4jfbT" version="24.0.7" type="github">
  <diagram name="第 1 页" id="rSjbLI-qnoq5vf5nYvKy">
    <mxGraphModel dx="660" dy="364" grid="1" gridSize="10" guides="1" tooltips="1" connect="1" arrows="1" fold="1" page="1" pageScale="1" pageWidth="827" pageHeight="1169" math="1" shadow="0">
      <root>
        <mxCell id="0" />
        <mxCell id="1" parent="0" />
        <mxCell id="BXFOHx3LHY9lLsJRWjRM-7" style="edgeStyle=orthogonalEdgeStyle;rounded=0;orthogonalLoop=1;jettySize=auto;html=1;entryX=0.5;entryY=1;entryDx=0;entryDy=0;strokeColor=default;align=center;verticalAlign=middle;fontFamily=Helvetica;fontSize=11;fontColor=default;labelBackgroundColor=default;endArrow=blockThin;endFill=1;endSize=3;" edge="1" parent="1" source="BXFOHx3LHY9lLsJRWjRM-5" target="BXFOHx3LHY9lLsJRWjRM-6">
          <mxGeometry relative="1" as="geometry" />
        </mxCell>
        <mxCell id="BXFOHx3LHY9lLsJRWjRM-16" style="edgeStyle=orthogonalEdgeStyle;rounded=0;orthogonalLoop=1;jettySize=auto;html=1;entryX=1;entryY=0.5;entryDx=0;entryDy=0;strokeColor=default;align=center;verticalAlign=middle;fontFamily=Helvetica;fontSize=11;fontColor=default;labelBackgroundColor=default;endArrow=blockThin;endFill=1;endSize=3;" edge="1" parent="1" source="BXFOHx3LHY9lLsJRWjRM-5" target="BXFOHx3LHY9lLsJRWjRM-15">
          <mxGeometry relative="1" as="geometry">
            <Array as="points">
              <mxPoint x="125" y="210" />
              <mxPoint x="160" y="210" />
              <mxPoint x="160" y="50" />
            </Array>
          </mxGeometry>
        </mxCell>
        <mxCell id="BXFOHx3LHY9lLsJRWjRM-43" style="edgeStyle=orthogonalEdgeStyle;rounded=0;orthogonalLoop=1;jettySize=auto;html=1;exitX=0.5;exitY=1;exitDx=0;exitDy=0;strokeColor=default;align=center;verticalAlign=middle;fontFamily=Helvetica;fontSize=11;fontColor=default;labelBackgroundColor=default;endArrow=blockThin;endFill=1;endSize=3;entryX=0.5;entryY=1;entryDx=0;entryDy=0;" edge="1" parent="1" target="BXFOHx3LHY9lLsJRWjRM-5">
          <mxGeometry relative="1" as="geometry">
            <mxPoint x="124.97637795275591" y="230" as="sourcePoint" />
          </mxGeometry>
        </mxCell>
        <mxCell id="BXFOHx3LHY9lLsJRWjRM-5" value="&lt;font face=&quot;宋体&quot;&gt;&lt;span style=&quot;font-size: 10px;&quot;&gt;全连接层&lt;/span&gt;&lt;/font&gt;" style="rounded=1;whiteSpace=wrap;html=1;fillColor=#dae8fc;strokeColor=#6c8ebf;" vertex="1" parent="1">
          <mxGeometry x="100" y="180" width="50" height="20" as="geometry" />
        </mxCell>
        <mxCell id="BXFOHx3LHY9lLsJRWjRM-10" style="edgeStyle=orthogonalEdgeStyle;rounded=0;orthogonalLoop=1;jettySize=auto;html=1;entryX=0.5;entryY=1;entryDx=0;entryDy=0;strokeColor=default;align=center;verticalAlign=middle;fontFamily=Helvetica;fontSize=11;fontColor=default;labelBackgroundColor=default;endArrow=blockThin;endFill=1;endSize=3;" edge="1" parent="1" source="BXFOHx3LHY9lLsJRWjRM-6" target="BXFOHx3LHY9lLsJRWjRM-8">
          <mxGeometry relative="1" as="geometry" />
        </mxCell>
        <mxCell id="BXFOHx3LHY9lLsJRWjRM-6" value="&lt;font face=&quot;宋体&quot;&gt;&lt;span style=&quot;font-size: 10px;&quot;&gt;(DW)Conv&lt;/span&gt;&lt;/font&gt;" style="rounded=1;whiteSpace=wrap;html=1;fillColor=#dae8fc;strokeColor=#6c8ebf;" vertex="1" parent="1">
          <mxGeometry x="100" y="133.5" width="50" height="20" as="geometry" />
        </mxCell>
        <mxCell id="BXFOHx3LHY9lLsJRWjRM-41" style="edgeStyle=orthogonalEdgeStyle;rounded=0;orthogonalLoop=1;jettySize=auto;html=1;exitX=0.5;exitY=0;exitDx=0;exitDy=0;entryX=0.5;entryY=1;entryDx=0;entryDy=0;strokeColor=default;align=center;verticalAlign=middle;fontFamily=Helvetica;fontSize=11;fontColor=default;labelBackgroundColor=default;endArrow=blockThin;endFill=1;endSize=3;" edge="1" parent="1" source="BXFOHx3LHY9lLsJRWjRM-8" target="BXFOHx3LHY9lLsJRWjRM-15">
          <mxGeometry relative="1" as="geometry" />
        </mxCell>
        <mxCell id="BXFOHx3LHY9lLsJRWjRM-8" value="&lt;font face=&quot;宋体&quot;&gt;&lt;span style=&quot;font-size: 10px;&quot;&gt;全连接层&lt;/span&gt;&lt;/font&gt;" style="rounded=1;whiteSpace=wrap;html=1;fillColor=#dae8fc;strokeColor=#6c8ebf;" vertex="1" parent="1">
          <mxGeometry x="100" y="90" width="50" height="20" as="geometry" />
        </mxCell>
        <mxCell id="BXFOHx3LHY9lLsJRWjRM-46" style="edgeStyle=orthogonalEdgeStyle;rounded=0;orthogonalLoop=1;jettySize=auto;html=1;exitX=0.5;exitY=0;exitDx=0;exitDy=0;strokeColor=default;align=center;verticalAlign=middle;fontFamily=Helvetica;fontSize=11;fontColor=default;labelBackgroundColor=default;endArrow=blockThin;endFill=1;endSize=3;" edge="1" parent="1" source="BXFOHx3LHY9lLsJRWjRM-15">
          <mxGeometry relative="1" as="geometry">
            <mxPoint x="124.95454545454544" y="30" as="targetPoint" />
          </mxGeometry>
        </mxCell>
        <mxCell id="BXFOHx3LHY9lLsJRWjRM-15" value="&lt;font style=&quot;font-size: 14px;&quot;&gt;+&lt;/font&gt;" style="ellipse;whiteSpace=wrap;html=1;aspect=fixed;fontFamily=Helvetica;fontSize=11;fontColor=default;labelBackgroundColor=default;" vertex="1" parent="1">
          <mxGeometry x="115" y="40" width="20" height="20" as="geometry" />
        </mxCell>
        <mxCell id="BXFOHx3LHY9lLsJRWjRM-23" style="edgeStyle=orthogonalEdgeStyle;rounded=0;orthogonalLoop=1;jettySize=auto;html=1;entryX=1;entryY=0.5;entryDx=0;entryDy=0;strokeColor=default;align=center;verticalAlign=middle;fontFamily=Helvetica;fontSize=11;fontColor=default;labelBackgroundColor=default;endArrow=blockThin;endFill=1;endSize=3;" edge="1" parent="1" source="BXFOHx3LHY9lLsJRWjRM-25" target="BXFOHx3LHY9lLsJRWjRM-31">
          <mxGeometry relative="1" as="geometry">
            <Array as="points">
              <mxPoint x="295" y="220" />
              <mxPoint x="350" y="220" />
              <mxPoint x="350" y="50" />
            </Array>
          </mxGeometry>
        </mxCell>
        <mxCell id="BXFOHx3LHY9lLsJRWjRM-24" style="edgeStyle=orthogonalEdgeStyle;rounded=0;orthogonalLoop=1;jettySize=auto;html=1;strokeColor=default;align=center;verticalAlign=middle;fontFamily=Helvetica;fontSize=11;fontColor=default;labelBackgroundColor=default;endArrow=blockThin;endFill=1;endSize=3;entryX=0.5;entryY=1;entryDx=0;entryDy=0;" edge="1" parent="1" target="BXFOHx3LHY9lLsJRWjRM-25">
          <mxGeometry relative="1" as="geometry">
            <mxPoint x="295" y="230" as="sourcePoint" />
          </mxGeometry>
        </mxCell>
        <mxCell id="BXFOHx3LHY9lLsJRWjRM-33" style="edgeStyle=orthogonalEdgeStyle;rounded=0;orthogonalLoop=1;jettySize=auto;html=1;entryX=1;entryY=0.5;entryDx=0;entryDy=0;strokeColor=default;align=center;verticalAlign=middle;fontFamily=Helvetica;fontSize=11;fontColor=default;labelBackgroundColor=default;endArrow=blockThin;endFill=1;endSize=3;" edge="1" parent="1" source="BXFOHx3LHY9lLsJRWjRM-25" target="BXFOHx3LHY9lLsJRWjRM-27">
          <mxGeometry relative="1" as="geometry">
            <Array as="points">
              <mxPoint x="294.98" y="163.5" />
            </Array>
          </mxGeometry>
        </mxCell>
        <mxCell id="BXFOHx3LHY9lLsJRWjRM-35" style="edgeStyle=orthogonalEdgeStyle;rounded=0;orthogonalLoop=1;jettySize=auto;html=1;strokeColor=default;align=center;verticalAlign=middle;fontFamily=Helvetica;fontSize=11;fontColor=default;labelBackgroundColor=default;endArrow=blockThin;endFill=1;endSize=3;entryX=1;entryY=0.5;entryDx=0;entryDy=0;" edge="1" parent="1" source="BXFOHx3LHY9lLsJRWjRM-25" target="BXFOHx3LHY9lLsJRWjRM-34">
          <mxGeometry relative="1" as="geometry">
            <mxPoint x="340" y="120" as="targetPoint" />
            <Array as="points">
              <mxPoint x="330" y="199" />
              <mxPoint x="330" y="88" />
            </Array>
          </mxGeometry>
        </mxCell>
        <mxCell id="BXFOHx3LHY9lLsJRWjRM-25" value="&lt;font face=&quot;宋体&quot;&gt;&lt;span style=&quot;font-size: 10px;&quot;&gt;全连接层&lt;/span&gt;&lt;/font&gt;" style="rounded=1;whiteSpace=wrap;html=1;fillColor=#dae8fc;strokeColor=#6c8ebf;" vertex="1" parent="1">
          <mxGeometry x="269.98" y="189" width="50" height="20" as="geometry" />
        </mxCell>
        <mxCell id="BXFOHx3LHY9lLsJRWjRM-26" style="edgeStyle=orthogonalEdgeStyle;rounded=0;orthogonalLoop=1;jettySize=auto;html=1;entryX=0.5;entryY=1;entryDx=0;entryDy=0;strokeColor=default;align=center;verticalAlign=middle;fontFamily=Helvetica;fontSize=11;fontColor=default;labelBackgroundColor=default;endArrow=blockThin;endFill=1;endSize=3;" edge="1" parent="1" source="BXFOHx3LHY9lLsJRWjRM-27" target="BXFOHx3LHY9lLsJRWjRM-29">
          <mxGeometry relative="1" as="geometry" />
        </mxCell>
        <mxCell id="BXFOHx3LHY9lLsJRWjRM-27" value="&lt;font face=&quot;宋体&quot;&gt;&lt;span style=&quot;font-size: 10px;&quot;&gt;矩阵乘积&lt;/span&gt;&lt;/font&gt;" style="rounded=1;whiteSpace=wrap;html=1;fillColor=#dae8fc;strokeColor=#6c8ebf;" vertex="1" parent="1">
          <mxGeometry x="234.98" y="153.5" width="50" height="20" as="geometry" />
        </mxCell>
        <mxCell id="BXFOHx3LHY9lLsJRWjRM-36" style="edgeStyle=orthogonalEdgeStyle;rounded=0;orthogonalLoop=1;jettySize=auto;html=1;entryX=0;entryY=0.5;entryDx=0;entryDy=0;strokeColor=default;align=center;verticalAlign=middle;fontFamily=Helvetica;fontSize=11;fontColor=default;labelBackgroundColor=default;endArrow=blockThin;endFill=1;endSize=3;" edge="1" parent="1" source="BXFOHx3LHY9lLsJRWjRM-29" target="BXFOHx3LHY9lLsJRWjRM-34">
          <mxGeometry relative="1" as="geometry">
            <Array as="points">
              <mxPoint x="260" y="88" />
            </Array>
          </mxGeometry>
        </mxCell>
        <mxCell id="BXFOHx3LHY9lLsJRWjRM-29" value="&lt;span style=&quot;font-size: 10px;&quot;&gt;&lt;font face=&quot;Times New Roman&quot;&gt;Softmax&lt;/font&gt;&lt;/span&gt;" style="rounded=1;whiteSpace=wrap;html=1;fillColor=#dae8fc;strokeColor=#6c8ebf;" vertex="1" parent="1">
          <mxGeometry x="234.98" y="116.25" width="50" height="20" as="geometry" />
        </mxCell>
        <mxCell id="BXFOHx3LHY9lLsJRWjRM-40" style="edgeStyle=orthogonalEdgeStyle;rounded=0;orthogonalLoop=1;jettySize=auto;html=1;exitX=0.5;exitY=0;exitDx=0;exitDy=0;strokeColor=default;align=center;verticalAlign=middle;fontFamily=Helvetica;fontSize=11;fontColor=default;labelBackgroundColor=default;endArrow=blockThin;endFill=1;endSize=3;" edge="1" parent="1" source="BXFOHx3LHY9lLsJRWjRM-31">
          <mxGeometry relative="1" as="geometry">
            <mxPoint x="294.9545454545454" y="30" as="targetPoint" />
          </mxGeometry>
        </mxCell>
        <mxCell id="BXFOHx3LHY9lLsJRWjRM-31" value="&lt;font style=&quot;font-size: 14px;&quot;&gt;+&lt;/font&gt;" style="ellipse;whiteSpace=wrap;html=1;aspect=fixed;fontFamily=Helvetica;fontSize=11;fontColor=default;labelBackgroundColor=default;" vertex="1" parent="1">
          <mxGeometry x="284.98" y="40" width="20" height="20" as="geometry" />
        </mxCell>
        <mxCell id="BXFOHx3LHY9lLsJRWjRM-32" style="edgeStyle=orthogonalEdgeStyle;rounded=0;orthogonalLoop=1;jettySize=auto;html=1;entryX=0;entryY=0.5;entryDx=0;entryDy=0;strokeColor=default;align=center;verticalAlign=middle;fontFamily=Helvetica;fontSize=11;fontColor=default;labelBackgroundColor=default;endArrow=blockThin;endFill=1;endSize=3;" edge="1" parent="1" source="BXFOHx3LHY9lLsJRWjRM-25" target="BXFOHx3LHY9lLsJRWjRM-27">
          <mxGeometry relative="1" as="geometry">
            <Array as="points">
              <mxPoint x="219.98" y="199.5" />
              <mxPoint x="219.98" y="163.5" />
            </Array>
          </mxGeometry>
        </mxCell>
        <mxCell id="BXFOHx3LHY9lLsJRWjRM-38" style="edgeStyle=orthogonalEdgeStyle;rounded=0;orthogonalLoop=1;jettySize=auto;html=1;exitX=0.5;exitY=0;exitDx=0;exitDy=0;entryX=0.5;entryY=1;entryDx=0;entryDy=0;strokeColor=default;align=center;verticalAlign=middle;fontFamily=Helvetica;fontSize=11;fontColor=default;labelBackgroundColor=default;endArrow=blockThin;endFill=1;endSize=3;" edge="1" parent="1" source="BXFOHx3LHY9lLsJRWjRM-34" target="BXFOHx3LHY9lLsJRWjRM-31">
          <mxGeometry relative="1" as="geometry" />
        </mxCell>
        <mxCell id="BXFOHx3LHY9lLsJRWjRM-34" value="&lt;font face=&quot;宋体&quot;&gt;&lt;span style=&quot;font-size: 10px;&quot;&gt;矩阵乘积&lt;/span&gt;&lt;/font&gt;" style="rounded=1;whiteSpace=wrap;html=1;fillColor=#dae8fc;strokeColor=#6c8ebf;" vertex="1" parent="1">
          <mxGeometry x="269.98" y="77.5" width="50" height="20" as="geometry" />
        </mxCell>
      </root>
    </mxGraphModel>
  </diagram>
</mxfile>
